<?xml version="1.0" standalone="no"?>
<!DOCTYPE svg PUBLIC "-//W3C//DTD SVG 20010904//EN"
 "http://www.w3.org/TR/2001/REC-SVG-20010904/DTD/svg10.dtd">
<svg version="1.0" xmlns="http://www.w3.org/2000/svg"
 width="512.000000pt" height="512.000000pt" viewBox="0 0 512.000000 512.000000"
 preserveAspectRatio="xMidYMid meet">

<g transform="translate(0.000000,512.000000) scale(0.100000,-0.100000)"
fill="#ed3b65" stroke="none">
<path d="M1655 4643 c-31 -8 -54 -32 -95 -103 -123 -213 -158 -451 -100 -669
57 -209 193 -309 471 -346 l47 -6 26 -72 c14 -40 26 -75 26 -78 0 -4 -143 -9
-317 -11 -311 -5 -320 -5 -398 -31 -187 -62 -332 -191 -425 -380 -64 -130 -83
-217 -84 -382 0 -186 30 -308 109 -439 19 -32 35 -60 35 -62 0 -2 -75 -4 -167
-3 -127 1 -183 -3 -228 -16 -83 -22 -174 -65 -185 -86 -26 -47 5 -109 54 -109
13 0 49 12 80 26 185 84 401 39 555 -115 248 -248 258 -702 22 -962 -107 -119
-235 -179 -381 -179 -200 0 -373 118 -476 325 -102 207 -100 449 6 660 22 44
40 89 40 101 0 28 -41 64 -73 64 -36 0 -59 -25 -101 -107 -104 -207 -120 -452
-45 -678 43 -128 98 -216 198 -315 94 -93 161 -134 281 -172 l75 -23 1633 0
1634 0 19 24 c24 30 24 62 0 92 l-19 24 -577 3 -578 2 56 59 c108 112 181 254
212 410 13 64 16 118 13 223 l-4 138 693 0 c680 0 693 0 713 20 11 11 20 33
20 50 0 17 -9 39 -20 50 -20 20 -33 20 -734 20 l-714 0 -42 77 c-48 90 -106
168 -161 218 l-39 35 874 0 c545 0 893 -4 926 -10 212 -40 390 -234 445 -484
19 -87 17 -277 -5 -349 l-11 -37 -465 0 c-389 0 -470 -2 -493 -15 -48 -24 -55
-72 -16 -110 l24 -25 442 0 441 0 -27 -37 c-71 -95 -160 -167 -259 -207 -43
-17 -81 -21 -254 -25 -199 -6 -204 -7 -223 -30 -24 -30 -24 -62 0 -92 19 -24
21 -24 213 -24 173 0 201 3 268 24 114 35 195 85 286 175 95 95 151 186 193
312 132 393 -31 842 -364 1005 -122 59 -174 69 -372 69 -95 0 -173 4 -173 8 0
4 4 12 9 18 5 5 28 46 50 91 71 142 102 326 81 486 -13 107 -53 237 -79 261
-28 25 -79 17 -103 -15 -20 -26 -20 -26 8 -110 32 -100 44 -287 24 -382 l-11
-57 -616 -2 -615 -3 -19 -24 c-26 -32 -24 -67 6 -96 l24 -25 576 0 c316 0 575
-4 575 -8 0 -16 -81 -122 -100 -132 -13 -7 -303 -10 -878 -10 -950 1 -932 2
-1064 -64 l-65 -33 49 61 c114 140 179 335 180 533 l1 113 388 0 c376 0 390 1
409 20 11 11 20 33 20 50 0 17 -9 39 -20 50 -19 19 -33 20 -424 20 l-404 0
-13 38 c-32 101 -103 216 -188 305 l-55 58 910 -3 909 -3 55 -24 c30 -14 87
-46 126 -73 77 -53 104 -58 134 -28 30 30 26 80 -7 112 -42 38 -116 86 -170
109 -126 54 -102 53 -917 58 l-759 6 -36 100 -37 100 68 78 c144 168 182 330
115 495 -92 229 -299 413 -551 491 -37 11 -69 20 -70 20 0 -1 -10 -4 -21 -6z
m160 -197 c156 -77 273 -193 342 -342 38 -80 38 -166 0 -245 -27 -55 -91 -138
-100 -129 -2 3 -48 124 -101 269 -52 145 -103 272 -113 283 -25 28 -80 21
-106 -14 l-20 -27 98 -273 c54 -150 100 -279 103 -287 6 -16 -30 -10 -128 21
-85 28 -158 98 -183 178 -38 119 -41 264 -6 393 19 73 91 217 107 217 9 0 57
-20 107 -44z m-199 -1250 c123 -33 235 -116 313 -231 89 -134 127 -274 118
-445 -17 -344 -259 -610 -552 -610 -132 0 -247 52 -355 160 -129 128 -193 291
-193 490 1 202 62 360 191 489 82 82 146 122 233 145 69 19 180 20 245 2z
m786 -1287 c97 -20 177 -66 259 -148 41 -42 89 -101 106 -131 172 -309 95
-725 -170 -914 -90 -64 -155 -87 -263 -93 -155 -9 -265 35 -384 156 -132 133
-194 288 -193 486 0 135 19 221 76 335 112 228 346 355 569 309z m-1052 -126
c51 -13 101 -17 229 -16 91 1 168 0 173 -3 5 -3 0 -17 -11 -32 -35 -50 -71
-130 -98 -219 -23 -78 -26 -105 -27 -238 0 -115 4 -167 18 -220 37 -144 141
-325 232 -404 l35 -31 -396 0 -395 0 54 55 c98 100 168 226 208 374 29 107 31
316 4 421 -35 136 -86 243 -163 337 l-34 42 53 -24 c29 -13 82 -32 118 -42z"/>
<path d="M1437 3029 c-155 -22 -296 -160 -342 -336 -19 -73 -19 -193 0 -266
49 -188 200 -326 366 -335 58 -4 70 -1 88 17 50 50 10 114 -78 124 -108 13
-194 94 -233 220 -50 165 17 343 154 411 94 47 189 31 273 -46 62 -56 93 -121
107 -222 6 -52 15 -76 30 -89 30 -26 76 -18 102 16 19 26 19 32 8 109 -38 263
-238 429 -475 397z"/>
<path d="M2263 1745 c-17 -12 -23 -26 -23 -54 0 -49 13 -59 94 -76 79 -17 110
-32 160 -82 88 -86 125 -234 92 -363 -64 -248 -314 -331 -474 -156 -55 60 -79
113 -93 211 -13 85 -32 115 -74 115 -15 0 -38 -12 -52 -26 -24 -24 -25 -30
-19 -93 14 -156 93 -298 207 -373 83 -54 146 -71 249 -66 115 5 194 42 273
128 94 101 137 214 137 361 0 252 -172 466 -391 485 -50 4 -69 2 -86 -11z"/>
<path d="M3340 2788 c-26 -28 -26 -58 1 -92 l20 -26 170 0 c167 0 170 0 194
25 30 30 31 54 4 89 l-20 26 -174 0 c-166 0 -175 -1 -195 -22z"/>
<path d="M599 1727 c-103 -29 -218 -130 -265 -231 -25 -55 -54 -170 -54 -217
0 -41 36 -79 74 -79 48 0 66 27 77 109 11 93 49 170 106 221 42 37 119 70 163
70 9 0 39 -7 67 -15 138 -41 232 -215 203 -377 -28 -150 -118 -246 -250 -267
-83 -13 -113 -63 -74 -120 16 -22 22 -23 90 -19 94 6 171 43 244 118 226 230
166 643 -114 780 -75 37 -190 49 -267 27z"/>
<path d="M3240 1033 c-56 -22 -68 -87 -24 -122 24 -19 40 -21 156 -21 161 0
188 11 188 76 0 58 -25 69 -174 71 -72 1 -138 0 -146 -4z"/>
</g>
</svg>
